<?xml version="1.0" encoding="UTF-8" standalone="no"?>
<!DOCTYPE svg PUBLIC "-//W3C//DTD SVG 1.1//EN" "http://www.w3.org/Graphics/SVG/1.1/DTD/svg11.dtd">
<svg width="100%" height="100%" viewBox="0 0 1080 1080" version="1.1" xmlns="http://www.w3.org/2000/svg" xmlns:xlink="http://www.w3.org/1999/xlink" xml:space="preserve" xmlns:serif="http://www.serif.com/" style="fill-rule:evenodd;clip-rule:evenodd;stroke-linejoin:round;stroke-miterlimit:2;">
    <g transform="matrix(37.365,0,0,37.365,91.6203,121.647)">
        <path d="M12,7.5C10.766,7.5 9.75,8.516 9.75,9.75C9.75,10.984 10.766,12 12,12C13.234,12 14.25,10.984 14.25,9.75C14.25,8.516 13.234,7.5 12,7.5Z" style="fill:rgb(31,210,44);fill-rule:nonzero;"/>
    </g>
    <g transform="matrix(37.365,0,0,37.365,91.6203,121.647)">
        <path d="M1.5,4.875C1.5,3.839 2.34,3 3.375,3L20.625,3C21.66,3 22.5,3.84 22.5,4.875L22.5,14.625C22.5,15.661 21.66,16.5 20.625,16.5L3.375,16.5C2.346,16.5 1.5,15.654 1.5,14.625L1.5,4.875ZM8.25,9.75C8.25,7.693 9.943,6 12,6C14.057,6 15.75,7.693 15.75,9.75C15.75,11.807 14.057,13.5 12,13.5C9.943,13.5 8.25,11.807 8.25,9.75ZM18.75,9C18.339,9 18,9.339 18,9.75L18,9.758C18,10.172 18.336,10.508 18.75,10.508L18.758,10.508C19.169,10.508 19.508,10.169 19.508,9.758L19.508,9.75C19.508,9.339 19.169,9 18.758,9L18.75,9ZM4.5,9.75C4.5,9.339 4.839,9 5.25,9L5.258,9C5.669,9 6.008,9.339 6.008,9.75L6.008,9.758C6.008,10.169 5.669,10.508 5.258,10.508L5.25,10.508C4.839,10.508 4.5,10.169 4.5,9.758L4.5,9.75Z" style="fill:rgb(31,210,44);"/>
    </g>
    <g transform="matrix(37.365,0,0,37.365,91.6203,121.647)">
        <path d="M2.25,18C1.839,18 1.5,18.339 1.5,18.75C1.5,19.161 1.839,19.5 2.25,19.5C7.65,19.5 12.88,20.222 17.85,21.575C19.04,21.899 20.25,21.017 20.25,19.755L20.25,18.75C20.25,18.339 19.911,18 19.5,18L2.25,18Z" style="fill:rgb(31,210,44);fill-rule:nonzero;"/>
    </g>
</svg>
